<svg version="1.1" id="Layer_1" xmlns="http://www.w3.org/2000/svg" xmlns:xlink="http://www.w3.org/1999/xlink" x="0px" y="0px" viewBox="0 0 250 250" style="enable-background:new 0 0 250 250; max-width: 80%" xml:space="preserve">
<style type="text/css">
.st0{fill:#FFFFFF;}
                .st1{fill:#F9EEC0;}
                .st2{fill:#179287;}
                .st3{fill:#E85325;}
</style>
<g id="Logotype">
<rect x="39.8" y="187.9" class="st0" width="42" height="9.1"></rect>
</g>
<g id="Guides">
<path class="st1" d="M54.7,211.3c-0.6-0.9-1.3-1.7-2.1-2.3c-1.5-1.2-3.4-1.9-5.4-1.9c-5,0-9.1,4-9.1,9c0,0.1,0,0.3,0,0.4
                    c0,6.3,4.6,9.6,9,9.6c2,0,3.9-0.6,5.5-1.7c1.4-1,2.4-2.5,2.9-4.2H45.2v-4.5h16.9c0.1,2.4-0.3,4.8-1.2,7c-2.6,5.8-8.6,8.4-13.6,8.4
                    c-8,0.1-14.6-6.2-14.7-14.2c0-0.1,0-0.2,0-0.4c0-8.3,6.6-14.4,14.8-14.4c6.3,0,11.8,4,13.7,9.1L54.7,211.3z"></path>
<path class="st1" d="M66.2,202.8h4.9v4.4h-4.9V202.8z M66.2,210h4.9v20.7h-4.9V210z"></path>
<path class="st1" d="M77.7,213.8h-3.4V210h3.4v-7.2h4.9v7.2h3.6v3.8h-3.6v16.9h-4.9V213.8z"></path>
<path class="st1" d="M90.2,202.8h5.6v12.9l9.2-12.9h5.9l-10.1,13.9l11.1,14h-6.9l-9.3-12.5v12.5h-5.6V202.8z"></path>
<path class="st1" d="M114.7,210h4.7v2.7c1-2.2,3.3-3.5,5.7-3.4v5h-0.2c-3.5,0-5.2,1.6-5.2,5.2v11.2h-4.9V210z"></path>
<path class="st1" d="M148.6,230.7h-4.9v-3c-1.5,2.4-4.2,3.8-7,3.6c-6.6,0-10.5-5.2-10.5-11c0-6.5,4.7-11,10.5-11
                    c2.8-0.2,5.5,1.3,7,3.7v-3h4.9V230.7z M131.1,220.4c-0.1,3.4,2.7,6.2,6.1,6.3c0.1,0,0.1,0,0.2,0c2.3,0.1,4.5-1.2,5.5-3.3
                    c0.5-0.9,0.7-1.9,0.8-2.9c0-1-0.2-2-0.6-2.9c-1-2.3-3.3-3.7-5.8-3.7c-3.4,0-6.2,2.8-6.3,6.2C131.1,220.2,131.1,220.3,131.1,220.4
                    L131.1,220.4z"></path>
<path class="st1" d="M154,202.8h4.9v15.1l7.1-7.9h5.9l-8.6,9.1l8.6,11.6h-5.6l-7.4-10.3v10.3H154V202.8z"></path>
<path class="st1" d="M180.5,225.7c2.4,1.9,5.9,1.5,7.8-0.8c1.5-1.4,2-3.6,1.4-5.5l3.5-3.7c0.9,2.1,1.3,4.4,0.9,6.6
                    c-0.3,2.1-1.3,4-2.8,5.5c-4.5,4.1-11.4,3.8-15.5-0.7c-3.6-4-3.8-10.1-0.5-14.3c2-2.1,4.7-3.4,7.6-3.4c3.5-0.1,6.8,1.5,9,4.3
                    L180.5,225.7z M185.9,214.6c-2.4-1.6-5.6-1.1-7.4,1.1c-2.1,2-2.4,5.2-0.6,7.5L185.9,214.6z"></path>
<path class="st1" d="M198.3,210h4.6c0,0.9,0,1.8,0,2.8c0.9-1.6,2.8-3.4,6.4-3.4c6.8,0,8,5.2,8,8.9v12.5h-4.9v-11.3
                    c0-3.1-1-5.5-4.5-5.5s-4.7,2.4-4.7,5.3v11.4h-4.9L198.3,210z"></path>
<path class="st2" d="M210.1,54.8c-0.7-1.9-2.8-2.8-4.7-2.1c-1.4,0.5-2.3,1.9-2.3,3.4c0,0.4,0.1,0.9,0.2,1.3
                    c16.3,43.3-5.7,91.6-49,107.9c-5.9,2.2-12.1,3.8-18.4,4.6v-39.1c2.5-0.5,4.9-1.2,7.3-2v32.9c41.3-10.1,66.7-51.7,56.6-93
                    c-5.1-20.9-18.7-38.8-37.6-49.2c-1.8-1-4-0.3-4.9,1.4c-1,1.8-0.3,4,1.4,4.9c33.7,18.6,45.9,61.1,27.3,94.8
                    c-7.8,14.2-20.4,25.2-35.5,31.1v-29.1c4.6-1.5,7.8-5.7,7.8-10.6c0-4-2-7.6-5.5-9.6c2.6-25.1,14.1-18.5,14.1-26.5v-4.7
                    c0-12-27.8-51.1-40.8-52c-0.4,0-0.8,0-1.2,0s-0.8,0-1.2,0c-13,0.9-40.8,40-40.8,52v4.7c0,8,11.4,1.4,14.1,26.5
                    c-3.4,2-5.5,5.6-5.5,9.6c0,4.9,3.2,9.1,7.8,10.6v29.1C63.6,137.6,46,97.1,60.1,61.3C66.1,46.2,77,33.7,91.2,25.8
                    c1.8-1,2.4-3.2,1.4-5C92,19.7,90.7,19,89.4,19c-0.6,0-1.2,0.2-1.7,0.5C50.5,40,36.9,86.8,57.5,124.1c10.4,18.9,28.3,32.5,49.2,37.6
                    v-32.8c2.4,0.8,4.8,1.5,7.3,2v39.1c-45.9-6.1-78.1-48.2-72-94.1c0.8-6.3,2.4-12.5,4.6-18.4c0.7-1.9-0.3-4-2.1-4.7s-4,0.3-4.7,2.1
                    l0,0C22.1,102,45.9,154.5,93,172.1c9.1,3.4,18.6,5.3,28.3,5.7v-46.2c1.3,0.1,3.7,0.1,3.7,0.1s2.4,0,3.7-0.1v46.1
                    c50.3-2.1,89.3-44.5,87.2-94.8C215.4,73.4,213.5,63.9,210.1,54.8z M141.7,106.7c2.9-2.9,7.6-2.9,10.6,0c2.9,2.9,2.9,7.6,0,10.6
                    c-2.9,2.9-7.6,2.9-10.6,0c-1.4-1.4-2.2-3.3-2.2-5.3C139.5,110,140.3,108.1,141.7,106.7z M108.1,117.3c-2.9,2.9-7.6,2.9-10.5,0
                    c0,0,0,0,0,0c-2.9-2.9-2.9-7.7,0-10.6c2.9-2.9,7.7-2.9,10.6,0C111.1,109.7,111.1,114.4,108.1,117.3z"></path>
<path class="st3" d="M68,194.1c0,0.2,0.1,0.4,0.2,0.6c0.1,0.2,0.3,0.3,0.4,0.4c0.2,0.1,0.5,0.2,0.7,0.2c0.2,0,0.5,0,0.7-0.2
                    c0.2-0.1,0.3-0.3,0.4-0.4c0.1-0.2,0.2-0.4,0.2-0.6c0.1-0.5,0.1-1,0-1.4c0-0.2-0.1-0.4-0.2-0.6c-0.1-0.2-0.3-0.3-0.4-0.4
                    c-0.2-0.1-0.5-0.2-0.7-0.2c-0.2,0-0.5,0-0.7,0.2c-0.2,0.1-0.3,0.3-0.4,0.4c-0.1,0.2-0.2,0.4-0.2,0.6
                    C67.9,193.2,67.9,193.7,68,194.1z"></path>
<path class="st3" d="M55.1,194.2c0,0.2,0.1,0.4,0.2,0.6c0.1,0.2,0.3,0.3,0.5,0.4c0.2,0.1,0.5,0.2,0.7,0.2c0.2,0,0.5-0.1,0.7-0.2
                    c0.2-0.1,0.3-0.3,0.5-0.4c0.1-0.2,0.2-0.4,0.2-0.6c0.1-0.5,0.1-0.9,0-1.4c0-0.2-0.1-0.4-0.2-0.6c-0.1-0.2-0.3-0.3-0.5-0.4
                    c-0.2-0.1-0.4-0.2-0.7-0.2c-0.2,0-0.5,0.1-0.7,0.2c-0.2,0.1-0.3,0.3-0.5,0.4c-0.1,0.2-0.2,0.4-0.2,0.6
                    C55,193.3,55,193.8,55.1,194.2z"></path>
<path class="st3" d="M44.8,193.6l-0.3,0.1c-0.1,0-0.2,0.1-0.4,0.1l-0.4,0.1c-0.1,0-0.2,0-0.4,0.1c-0.1,0-0.2,0.1-0.3,0.2
                    c-0.1,0.1-0.2,0.2-0.2,0.2c-0.1,0.2-0.1,0.5,0,0.8c0.1,0.1,0.1,0.2,0.2,0.2c0.1,0.1,0.2,0.1,0.3,0.1c0.1,0,0.3,0,0.4,0
                    c0.3,0,0.5,0,0.8-0.2c0.2-0.1,0.3-0.2,0.4-0.4c0.1-0.1,0.1-0.3,0.2-0.5c0-0.1,0-0.2,0-0.4v-0.6C45,193.5,44.9,193.6,44.8,193.6z"></path>
<path class="st3" d="M38.9,186.8l-3.5,11.3h47.2l3.6-11.3H38.9z M45.3,196.4c0-0.1-0.1-0.2-0.1-0.3s0-0.2,0-0.3
                    c-0.3,0.3-0.6,0.5-0.9,0.6c-0.4,0.1-0.7,0.2-1.1,0.2c-0.3,0-0.5,0-0.8-0.1c-0.2-0.1-0.5-0.2-0.7-0.3c-0.2-0.2-0.3-0.3-0.4-0.6
                    c-0.1-0.3-0.2-0.5-0.2-0.8c0-0.3,0.1-0.6,0.2-0.8c0.1-0.2,0.3-0.4,0.5-0.5c0.2-0.1,0.4-0.2,0.7-0.3c0.2-0.1,0.5-0.1,0.7-0.1
                    l0.7-0.1c0.2,0,0.4-0.1,0.6-0.1c0.2,0,0.3-0.1,0.4-0.2c0.1-0.1,0.2-0.2,0.2-0.4c0-0.1,0-0.3-0.1-0.4c-0.1-0.1-0.1-0.2-0.2-0.2
                    c-0.1-0.1-0.2-0.1-0.3-0.1c-0.1,0-0.3,0-0.4,0c-0.3,0-0.5,0.1-0.8,0.2c-0.2,0.2-0.3,0.4-0.3,0.7h-1.7c0-0.4,0.1-0.7,0.3-1
                    c0.2-0.3,0.4-0.5,0.7-0.6c0.3-0.2,0.6-0.3,0.9-0.3c0.3-0.1,0.7-0.1,1-0.1c0.3,0,0.6,0,0.9,0.1c0.3,0,0.6,0.1,0.8,0.3
                    c0.3,0.1,0.5,0.3,0.6,0.5c0.2,0.3,0.3,0.6,0.2,0.9v3.1c0,0.3,0,0.5,0,0.8c0,0.2,0.1,0.4,0.2,0.6H45.3z M51.8,196.4l-1.3-2
                    c-0.4,0.6-0.8,1.3-1.2,1.9l0,0h-1.9c0.6-1.1,1.3-2.2,2.2-3.2l-2-2.8h1.9l1.1,1.7c1.2-1.2,2.7-2.3,4.2-3.1c-1.2,1.3-2.4,2.7-3.4,4.2
                    l2.3,3.3L51.8,196.4z M59.4,194.8c-0.1,0.4-0.3,0.7-0.6,1c-0.3,0.3-0.6,0.5-1,0.6c-0.4,0.1-0.8,0.2-1.3,0.2c-0.4,0-0.9-0.1-1.3-0.2
                    c-0.4-0.1-0.7-0.4-1-0.6c-0.3-0.3-0.5-0.6-0.6-1c-0.2-0.4-0.2-0.8-0.2-1.3c0-0.4,0.1-0.9,0.2-1.3c0.1-0.4,0.3-0.7,0.6-1
                    c0.3-0.3,0.6-0.5,1-0.6c0.4-0.2,0.8-0.2,1.3-0.2c0.4,0,0.9,0.1,1.3,0.2c0.7,0.3,1.3,0.9,1.6,1.6c0.1,0.4,0.2,0.9,0.2,1.3
                    C59.6,194,59.5,194.4,59.4,194.8z M65.6,195.5c-0.2,0.3-0.4,0.5-0.6,0.6c-0.3,0.2-0.6,0.3-0.9,0.3c-0.7,0.1-1.3,0.1-2,0
                    c-0.3-0.1-0.6-0.2-0.9-0.4c-0.3-0.2-0.5-0.4-0.7-0.6c-0.2-0.3-0.3-0.6-0.3-1h1.6c0,0.2,0,0.3,0.1,0.5c0.1,0.1,0.2,0.2,0.3,0.3
                    c0.1,0.1,0.3,0.1,0.4,0.2c0.2,0,0.3,0,0.5,0.1c0.1,0,0.2,0,0.4,0c0.1,0,0.2-0.1,0.3-0.1c0.1-0.1,0.2-0.1,0.3-0.2
                    c0.1-0.1,0.1-0.2,0.1-0.4c0-0.2-0.2-0.4-0.5-0.6c-0.5-0.2-0.9-0.3-1.4-0.4c-0.2,0-0.5-0.1-0.7-0.2c-0.2-0.1-0.4-0.2-0.6-0.3
                    c-0.2-0.1-0.3-0.3-0.4-0.5c-0.1-0.2-0.2-0.4-0.2-0.7c0-0.3,0.1-0.7,0.2-1c0.1-0.2,0.4-0.4,0.6-0.6c0.3-0.1,0.5-0.2,0.8-0.3
                    c0.3-0.1,0.6-0.1,1-0.1c0.3,0,0.7,0,1,0.1c0.3,0.1,0.6,0.2,0.8,0.3c0.2,0.1,0.4,0.4,0.6,0.6c0.2,0.3,0.3,0.6,0.3,0.9h-1.7
                    c0-0.3-0.1-0.5-0.4-0.6c-0.2-0.1-0.5-0.2-0.8-0.2c-0.1,0-0.2,0-0.3,0c-0.1,0-0.2,0-0.3,0.1c-0.1,0-0.2,0.1-0.2,0.2
                    c-0.1,0.1-0.1,0.2-0.1,0.3c0,0.1,0.1,0.3,0.2,0.4c0.1,0.1,0.3,0.2,0.4,0.2c0.2,0.1,0.4,0.1,0.6,0.1l0.7,0.1
                    c0.2,0.1,0.5,0.1,0.7,0.2c0.2,0.1,0.4,0.2,0.6,0.3c0.2,0.1,0.3,0.3,0.4,0.5c0.1,0.2,0.2,0.5,0.2,0.7
                    C65.8,194.8,65.7,195.2,65.6,195.5z M72.3,194.7c-0.1,0.4-0.3,0.7-0.6,1c-0.3,0.3-0.6,0.5-1,0.6c-0.4,0.2-0.9,0.2-1.3,0.2
                    c-0.4,0-0.9-0.1-1.3-0.2c-0.4-0.1-0.7-0.4-1-0.6c-0.3-0.3-0.5-0.6-0.6-1c-0.3-0.8-0.3-1.8,0-2.6c0.1-0.4,0.4-0.7,0.6-1
                    c0.3-0.3,0.6-0.5,1-0.6c0.4-0.2,0.8-0.2,1.3-0.2c0.4,0,0.9,0.1,1.3,0.2c0.7,0.3,1.3,0.9,1.6,1.6C72.6,193,72.6,193.9,72.3,194.7
                    L72.3,194.7z M80.2,191.5H79v3c0,0.2,0,0.4,0.1,0.6c0.2,0.1,0.4,0.2,0.6,0.1H80h0.2v1.3c-0.2,0-0.3,0-0.5,0h-0.5
                    c-0.2,0-0.5,0-0.7-0.1c-0.2,0-0.4-0.1-0.6-0.2c-0.2-0.1-0.3-0.3-0.4-0.4c-0.1-0.2-0.2-0.5-0.2-0.7v-3.6h-2v4.9h-1.7v-4.9h-1v-1.1h1
                    V190c0-0.5,0.2-1,0.5-1.3c0.4-0.4,1-0.6,1.5-0.5c0.1,0,0.3,0,0.4,0h0.4v1.2c-0.2,0-0.4,0-0.6,0c-0.2,0-0.3,0-0.5,0.1
                    c-0.1,0.2-0.2,0.3-0.2,0.5v0.4h2v-1.8H79v1.8h1.2L80.2,191.5z"></path>
</g>
</svg>
